<?xml version="1.0" encoding="utf-8"?>
<!-- Generator: Adobe Illustrator 28.3.0, SVG Export Plug-In . SVG Version: 6.00 Build 0)  -->
<svg version="1.1" id="Слой_1" xmlns="http://www.w3.org/2000/svg" xmlns:xlink="http://www.w3.org/1999/xlink" x="0px" y="0px"
	 viewBox="0 0 639.9 262" enable-background="new 0 0 639.9 262" xml:space="preserve">
<g>
	<path fill-rule="evenodd" clip-rule="evenodd" fill="#FFD700" stroke="#000000" stroke-miterlimit="10" d="M375.6,230.1
		c-14.7,7-31.2,10.9-48.6,10.9c-37.6,0-71-18.4-91.7-46.7h-16.7c0.9,1.5,1.8,2.9,2.8,4.4c4.6,6.7,9.8,13.1,15.5,18.8
		c5.8,5.8,12.1,11,18.8,15.5c6.8,4.6,14.1,8.6,21.6,11.7c15.7,6.6,32.4,10,49.5,10c17.2,0,33.9-3.4,49.6-10
		c7.5-3.2,14.8-7.1,21.6-11.7c1.4-1,2.8-2,4.2-3H375.6z"/>
	<path fill-rule="evenodd" clip-rule="evenodd" fill="#0057B7" stroke="#000000" stroke-miterlimit="10" d="M235.2,61.1
		c20.6-28.5,54.2-47,91.9-47c37.8,0,71.3,18.5,91.9,47h16.7c-1-1.6-2-3.2-3-4.7c-4.6-6.7-9.8-13.1-15.5-18.8S405,26.6,398.2,22
		c-6.8-4.6-14.1-8.5-21.6-11.7c-15.7-6.6-32.4-10-49.6-10c-17.2,0-33.8,3.4-49.5,10c-7.5,3.2-14.8,7.1-21.6,11.7
		c-6.7,4.6-13.1,9.8-18.8,15.5c-5.8,5.8-11,12.1-15.5,18.8c-1.1,1.5-2.1,3.1-3,4.7H235.2z"/>
</g>
<g>
	<g>
		<defs>
			<polygon id="SVGID_1_" points="138,85.7 96.5,140.1 55.1,85.7 54.6,85.7 54.5,85.7 53.6,85.7 53.6,85.7 21.8,85.7 21.8,176.8 
				53.6,176.8 53.6,176.8 54.5,176.8 54.5,176.8 55.1,176.8 55.1,126.8 80.5,160.2 93.2,176.9 101.2,176.9 113.9,160.2 113.9,160.2 
				138,128.5 138,176.8 171.3,176.8 171.3,85.7 			"/>
		</defs>
		<clipPath id="SVGID_00000128448916179135515450000004332333609879700643_">
			<use xlink:href="#SVGID_1_"  overflow="visible"/>
		</clipPath>
		<g clip-path="url(#SVGID_00000128448916179135515450000004332333609879700643_)">
			<rect x="-0.4" y="0.4" fill="#0057B7" width="640.1" height="261.4"/>
			<rect x="-0.4" y="131.1" fill="#FFD700" width="640.1" height="130.7"/>
		</g>
	</g>
	<polygon fill="none" stroke="#000000" stroke-width="1.9999" stroke-miterlimit="10" points="138,82.1 136,82.1 134.8,83.6 
		96.6,133.9 58.4,83.6 57.2,82.1 56.6,82.1 54.6,82 53.7,82 49.7,82 49.7,82.1 21.9,82.1 17.9,82.1 17.9,86.1 17.9,177.2 
		17.9,181.2 21.9,181.2 53.7,181.2 54.6,181.2 55.2,181.2 59.2,181.2 59.2,177.2 59.2,139 77.4,163 90,179.6 91.2,181.2 93.2,181.2 
		101.3,181.2 103.3,181.2 104.4,179.6 114.7,166.1 117.1,163 134.1,140.7 134.1,177.2 134.1,181.2 138.1,181.2 171.3,181.2 
		175.3,181.2 175.3,177.2 175.3,86.1 175.3,82.1 171.3,82.1 	"/>
</g>
<g>
	<g>
		<defs>
			<polygon id="SVGID_00000175323591314472032640000014531814855368447673_" points="291.5,176.8 327.9,176.8 287.1,85.7 
				237.2,85.7 196.4,176.8 232.9,176.8 239.6,161.8 240.2,160.6 275.6,160.6 267.8,143.3 247.9,143.3 254.6,128.3 254.6,128.3 
				262.2,111.4 			"/>
		</defs>
		<clipPath id="SVGID_00000037682101031406631540000008684818657346355373_">
			<use xlink:href="#SVGID_00000175323591314472032640000014531814855368447673_"  overflow="visible"/>
		</clipPath>
		<g clip-path="url(#SVGID_00000037682101031406631540000008684818657346355373_)">
			<rect x="1" y="0.3" fill="#0057B7" width="640.1" height="261.4"/>
			<rect x="1" y="131" fill="#FFD700" width="640.1" height="130.7"/>
		</g>
	</g>
	<path fill="none" stroke="#000000" stroke-width="1.9999" stroke-miterlimit="10" d="M267.8,139.3h-13.7l4.2-9.3l2.3-5.2h0l1.6-3.6
		l8.1,18.1H267.8z M290.8,84.1l-1.1-2.4h-2.6h-49.9h-2.6l-1.1,2.4l-40.8,91.1l-2.5,5.6h6.2h36.5h2.6l1.1-2.4l6.2-13.8h32.8h6
		l6.2,13.8l1.1,2.4h2.6h36.5h6.2l-2.5-5.6L290.8,84.1z"/>
</g>
<g>
	<g>
		<defs>
			<polygon id="SVGID_00000125563758385073954280000016539288739628085935_" points="533.1,176.8 533.1,85.7 499.8,85.7 
				499.8,176.8 			"/>
		</defs>
		<clipPath id="SVGID_00000160150264638494316500000013527325700047433913_">
			<use xlink:href="#SVGID_00000125563758385073954280000016539288739628085935_"  overflow="visible"/>
		</clipPath>
		<g clip-path="url(#SVGID_00000160150264638494316500000013527325700047433913_)">
			<rect x="0.5" y="-0.1" fill="#0057B7" width="640.1" height="261.4"/>
			<rect x="0.5" y="130.6" fill="#FFD700" width="640.1" height="130.7"/>
		</g>
	</g>
	<g>
		<defs>
			<polygon id="SVGID_00000068660856793692329340000006374283899818075574_" points="567.1,127.1 604,85.7 576.8,85.7 541.9,124.9 
				540.1,126.5 540.1,135.8 541.9,137.4 577.1,176.8 611.7,176.8 571,131.1 			"/>
		</defs>
		<clipPath id="SVGID_00000052081665370398943930000000838730053721280907_">
			<use xlink:href="#SVGID_00000068660856793692329340000006374283899818075574_"  overflow="visible"/>
		</clipPath>
		<g clip-path="url(#SVGID_00000052081665370398943930000000838730053721280907_)">
			<rect x="0.5" y="0.4" fill="#0057B7" width="640.1" height="261.4"/>
			<rect x="0.5" y="131.1" fill="#FFD700" width="640.1" height="130.7"/>
		</g>
	</g>
	<polygon fill="none" stroke="#000000" stroke-width="1.9999" stroke-miterlimit="10" points="614.7,174.1 573.9,128.5 573.9,128.4 
		573.9,128.4 572.5,127 606.9,88.4 612.9,81.7 604,81.7 603.9,81.7 576.8,81.7 575,81.7 573.8,83.1 539,122 537.4,123.5 
		537.1,123.8 537.1,85.7 537.1,81.7 533.1,81.7 499.8,81.7 495.8,81.7 495.8,85.7 495.8,176.8 495.8,180.8 499.8,180.8 533.1,180.8 
		537.1,180.8 537.1,176.8 537.1,138.5 537.4,138.8 539,140.2 574.1,179.5 575.3,180.8 577,180.8 611.7,180.8 620.7,180.8 	"/>
</g>
<g>
	<g>
		<defs>
			<path id="SVGID_00000127745059879164600540000005131303291118777989_" d="M415,129.7L415,129.7c0,0-7.5,0-22.7,0v20.1h25.4
				l24,26.9h31.8l-26.9-30.1c11.8-5,20.1-15.3,20.8-27.4c0-0.5,0.1-1,0.1-1.5l0,0c0-17.6-16.5-32-36.8-32.1l-14.6,0H415h-22.6h-7.8
				h-32.4v91h33.3v-70.9H415h1v0c0.1,0,0.2,0,0.3,0l6.9,0c0.3,0,0.5,0,0.8,0c6.6,0,11.9,5.3,11.9,11.9c0,6.5-5.2,11.7-11.6,11.9
				L415,129.7z"/>
		</defs>
		<clipPath id="SVGID_00000140694399769831470890000017180602663345984142_">
			<use xlink:href="#SVGID_00000127745059879164600540000005131303291118777989_"  overflow="visible"/>
		</clipPath>
		<g clip-path="url(#SVGID_00000140694399769831470890000017180602663345984142_)">
			<rect x="0.3" y="0.5" fill="#0057B7" width="640.1" height="261.4"/>
			<rect x="0.3" y="131.2" fill="#FFD700" width="640.1" height="130.7"/>
		</g>
	</g>
	<g>
		<path fill="none" stroke="#000000" stroke-width="1.9999" stroke-miterlimit="10" d="M389.4,110.4h22.6h4c0.1,0,0.2,0,0.3,0l6.8,0
			h0h0h0.2c0.2,0,0.4,0,0.6,0c4.4,0,7.9,3.6,7.9,7.9c0,4.3-3.4,7.8-7.7,7.9l-9.3,0h-2.1v0c-0.8,0-2,0-3.6,0c-3.8,0-9.4,0-17,0h-3
			V110.4z"/>
		<path fill="none" stroke="#000000" stroke-width="1.9999" stroke-miterlimit="10" d="M453.7,148.2c10.8-6.3,17.7-16.8,18.3-28.4
			c0.1-0.7,0.1-1.2,0.1-1.8c0-19.8-18.3-36-40.7-36.1l-14.6,0l0,0h-1.2h-22.6H385h-32.4h-4v4v91v4h4h33.3h4v-4v-22.9h3h23.6
			l22.9,25.6l1.2,1.3h1.8h31.8h8.9l-6-6.7L453.7,148.2z"/>
	</g>
</g>
<g>
	<path fill-rule="evenodd" clip-rule="evenodd" fill="#FFD700" stroke="#000000" stroke-width="0.5" stroke-miterlimit="10" d="
		M469,173c-1.1-0.7-3.1,0.7-4.4,2.6v0c-1,1.5-1.5,3-1.2,4c0.1,0.4,0.3,0.6,0.6,0.8c0.2,0.1,0.4,0.2,0.7,0.2c1.1,0,2.6-1.3,3.7-2.8
		c1-1.5,1.4-2.9,1.2-3.9C469.5,173.5,469.3,173.2,469,173z"/>
	<path fill-rule="evenodd" clip-rule="evenodd" fill="#FFD700" stroke="#000000" stroke-width="0.5" stroke-miterlimit="10" d="
		M609.7,189.4c1-0.2,1.7,0,2,0.5c0.4,0.6,0.3,1.6-0.3,2.5c-1.8,3.1-9.5,7.8-14.2,8.8C600,197.2,606.1,189.9,609.7,189.4z
		 M538.6,232.8c-1.3,2.2-2.7,4.4-4.1,6.5c-0.8,1.2-1.6,2.4-2.3,3.6c-2.1,3.3-4.2,6.6-6.7,9.7c-2,2.5-4.2,5.2-7,7
		c-2.1,1.4-3.9,1.9-4.8,1.4c-0.4-0.3-0.7-0.5-0.8-1.3c-0.5-2.5,1.9-7.6,6.2-13.2c5.7-7.2,12-12,17.4-15.8c1.2-0.8,2.4-1.7,3.6-2.4
		c0.7-0.5,1.4-0.9,2.1-1.4C541,228.8,539.8,230.9,538.6,232.8z M502.4,215c-0.8,0-2.3-0.5-2.3-1.5c0-2.8,7.2-5,10.3-5.9
		C508.5,211.3,506,215,502.4,215z M467,214.7L467,214.7c-0.9,4.9-2.3,9.6-4.3,14.3c-1-0.2-1.9-0.4-2.9-0.5c-0.2,0.3-0.4,0.6-0.6,0.8
		c1.1,0.2,2.1,0.4,3.2,0.6c-1.6,3.6-3.4,7.2-5.7,11c-2.7-1.2-5.5-2.4-8.2-3.6c4.2-6.3,7.8-11.6,11.3-16.8c2.5-3.8,5.2-7.7,8-11.8
		C467.6,210.5,467.4,212.5,467,214.7z M477,234.1c5.3,1.9,10.5,4.3,14.3,7.4c1.9,1.7,4.3,4.1,3.5,6.5c-0.7,2.2-4.4,2.9-7.2,2.7
		c-6.7-0.5-14-2.4-19.5-5c-3.5-1.5-7-2.9-10.4-4.4c2.4-4.1,4.3-7.8,5.7-11.2C468.1,231.1,472.6,232.4,477,234.1z M444.3,256.9
		c-2.6,2.3-5.9,4.8-7.5,4c-0.1-0.1-0.3-0.2-0.3-0.4c-0.6-2.1,2.8-8.9,4.2-11.3c1.4-2.3,2.9-4.7,4.5-6.9c0.6-0.9,1.2-1.8,1.8-2.7
		c1.1,0.5,2.2,1,3.2,1.5c1.7,0.7,3.3,1.4,5,2.2C451.7,248.7,447.9,253.5,444.3,256.9z M385.7,218c-5.4,0-13-1.8-5.9-5.6
		c2.2-1.1,4.6-1.8,7.2-1.9c5-0.1,10.1,1.4,14.7,3.3C396.8,216.4,391.2,217.8,385.7,218z M463.8,141.6c3.4-3.8,7.5-7.8,12.5-9.8
		c4.5-1.8,11.1-1,11.4,4.4c0,0.2,0,0.4,0,0.6l0,0c-0.1,3.4-5.9,7.6-9,10.1c-4.4,3.2-9.2,6-14.2,8.3c-6,2.8-10.3,4.8-15.2,6.3
		C453.7,154.5,458.3,147.8,463.8,141.6z M488.7,176.4c1.8-2.9,3.7-5.8,5.7-8.8c1.6-2.5,3.2-5,4.8-7.5c1.6-2.5,3.2-5,4.8-7.5
		c2.6-4,5.5-8,9.4-10.6c0.9-0.6,2.4-0.9,3-0.7c0.4,0.1,0.9,0.6,1.1,1.2l0,0c0.3,0.9,0.7,4.5-5.6,13.3c-4.9,6.8-14,15.4-20,21
		c-0.8,0.7-1.5,1.4-2.1,2c-1.3,1.2-2.6,2.4-3.8,3.6c-0.9,0.9-1.8,1.7-2.7,2.5C485.1,182.1,486.8,179.3,488.7,176.4z M500.5,189.4
		c1-0.2,1.7,0,2,0.5c0.4,0.6,0.3,1.6-0.3,2.5c-1.8,3.1-9.5,7.8-14.2,8.8C490.9,197.2,497,189.9,500.5,189.4z M590.3,179.5
		c6.5-10.3,13.2-21,20.5-30.8c2.1-2.7,4.2-5.4,6.2-6.8c0.8-0.6,2.4-1.2,3.5-0.9c0.5,0.1,0.8,0.5,1,1c0.8,2.5-1.4,7.7-5.7,13.6
		c-2.8,3.7-6,7.6-9.6,11.5c-3.7,4.1-7.8,8.1-11.8,12c-3.5,3.5-7.1,7-10.5,10.6C586,186.3,588.1,182.9,590.3,179.5z M579.9,195.9
		l0.4-0.7c4.4-5.1,9.5-10.1,14.4-14.9c4.1-4,8.3-8.1,12.2-12.4c3.4-3.7,6.8-7.7,9.6-11.6c6.7-9.2,6.3-13.3,5.9-14.6
		c-0.3-0.9-0.9-1.6-1.7-1.8c-1.3-0.5-3.1-0.1-4.8,1c-2.6,1.6-5.1,3.7-8,7c-8,9.1-14.9,19.5-21.5,29.7c-0.5,0.7-0.9,1.4-1.4,2.2
		c-0.4,0.6-0.8,1.2-1.2,1.8c-4,6.1-6.9,10.6-10.2,17.2c-6.1,7.5-12.1,13.3-19.9,19c2.3-3.5,4.6-7.1,6.9-10.6c2.6-4.1,5.3-8.2,8-12.3
		c1.5-2.4,3.6-5.3,4.9-6.8l-0.5-0.5c-1.3,1.1-3.6,1.8-5.5,1.5l-0.2,0L567,189c-1.4,2.1-2.8,4.1-4,5.9c-0.8,1.2-1.6,2.3-2.3,3.4
		c-2.5,3.8-7,9.5-10.8,12.8c-2.9,2.6-5.2,3.8-6.6,3.6c-0.3,0-0.4-0.2-0.4-0.3c-0.5-1.1,1.3-4.5,1.9-5.6c1.7-2.8,3.5-5.8,5.6-8.9
		c1.3-1.9,2.8-4.2,4.1-6.7c0.8-1.6,0.9-3.3,0.1-4.4c-0.6-0.8-1.5-1.1-2.7-0.9c-2.4,0.4-4.6,2.5-10.8,10.3l0,0
		c-0.7,0.9-1.5,1.8-2.3,2.8c-2.2,2.7-4.4,5.5-6.7,7.9c-3.3,3.6-6.3,5.6-8.2,5.5c-0.5,0-0.8-0.2-1-0.4c-0.6-0.9,0.6-3.3,1.1-4.3
		c0-0.1,0.1-0.2,0.1-0.3c1.8-3.5,3.9-6.6,6-9.9c0.5-0.8,1.1-1.7,1.7-2.5l14.6-22c2.5,0.3,7,0.3,10.1-1.9c0.3-0.2,0.3-0.4,0.3-0.5
		c0-0.2-0.1-0.3-0.3-0.4c-0.2-0.1-0.3,0-0.4,0.1c-2.4,1.6-5.6,1.5-8.5,1.2l7.7-11.7c2-3.1,5.1-7.6,6.6-9.4l-0.5-0.5
		c-1.3,1.2-3.6,1.8-5.5,1.5l-0.2,0l-13,19.5c-4-0.3-6.9,0.4-9.3,2.3l0,0c-0.2,0.2-0.2,0.4-0.2,0.5c0,0.2,0.2,0.3,0.4,0.4
		c0.2,0.1,0.4,0,0.5-0.1c2.5-1.8,5-1.8,7.6-1.5l-3.6,5.4c-1.9,2.7-11.6,16.3-13.4,18.4c0,0,0,0,0,0c-3,3.6-5.8,5-8.5,6.2
		c0.5-2.3,0.4-4.6-0.2-6.9c-0.1-0.4-0.2-0.8-0.4-1.2c-0.6-2-1.2-4.1-1.1-6.2c0.6-0.7,1.3-1.5,1.9-2.2c0.6-0.7,1.1-1.3,1.5-1.7
		c0.6-0.7,1.9-2.5,1.5-3.6c-0.1-0.3-0.3-0.6-0.9-0.7c-1-0.2-2.5,0.8-3.6,2.5c-1,1.4-1.4,3.1-1.5,5.3c-0.5,0.6-1.1,1.3-1.8,2.1
		c-1.9,2.3-4.2,4.9-5.4,6.4c0,0,0,0-0.1,0.1c-4.1,5.1-8.7,9.6-13,12.7c-3.3,2.4-6.3,3.6-8.4,3.4c-0.6,0-1-0.2-1.3-0.6
		c-0.7-1-0.4-3,0-4.5c0.7-2.1,1.6-4.4,3.4-7c5.3-0.8,14-5.9,16.1-9.4c0.8-1.4,0.9-2.8,0.3-3.8c-0.6-0.9-1.7-1.3-3.1-1.2
		c-4.3,0.5-9.4,4.3-11.3,6c-1.6,1.3-3,2.7-4.2,4.2c0,0,0,0-0.1,0.1l0,0c-1.8,2.1-4,4-6.3,5.4c-2.5,1.5-4.6,2.4-6.8,2.2
		c-0.7-0.1-1.5-0.5-1.6-1l0.2-0.3l10.4-15.6c2.9-2.9,6.2-6,9.7-9.2l0.2-0.2c7.6-7,16.2-15,22.3-23.2c4.5-6.1,6.6-11.3,5.7-14.3
		c-0.3-0.9-0.9-1.6-1.7-1.9c-5-1.8-12.4,7-15.2,10.3l-0.1,0.1c-2.8,3.3-5.3,7-7.7,10.5c-0.9,1.3-1.8,2.7-2.8,4
		c-6.1,8.8-12.2,18-18,26.8c-1.4,2.1-2.8,4.2-4.2,6.3l-0.4,0.4c-0.5-0.6-1.2-1-1.9-1.1c-0.6-0.1-1.3,0.1-1.8,0.5
		c-1.2,1.1-1.1,3,0.2,4.8c-2.4,2.9-5.2,6.1-7.7,8.5c-1.7,1.6-3.4,2.7-4.5,2.9c-0.4,0.1-1,0.2-1.2-0.1c-0.4-0.5-0.1-2.2,1.9-5.5l0,0
		c1.4-2.6,3.2-5,4.8-7.4c1.9-2.7,3.7-5.3,5.2-8.2c0.8-1.6,0.9-3.3,0.1-4.4c-0.3-0.5-0.8-0.8-1.4-0.9c0,0,0,0-0.1,0
		c-0.6,0.4-1.2,1-1.5,1.5c-0.1,0.2-0.3,1-1.8,3.3c-1.1,1.8-2.6,3.9-4.1,5.9c-1.5,2.2-3,4.2-3.7,5.3l0,0.1c-1.7,3-3.3,5.8-3,8.6
		c0.2,1.2,0.7,2.1,1.6,2.6c1,0.6,2.3,0.6,3.5,0.1c1.4-0.5,3-1.6,4.7-3.2c2-1.7,4-3.9,5.8-6c-1.3,1.9-2.5,3.9-3.8,5.8
		c-5,7.6-10.1,15.5-15,23.6c-4.5-2.1-8.9-4.2-13.4-6.5c-0.9-0.3-3.4-1.8-4.2-2.1c-2.9-1.5-6.7-3.9-9-5.2c-4.6-2.7-8.1-5.4-12.8-8.1
		c10.8-6.4,18.7-15.3,25.4-24.4h0c0.1-0.3,0.4-0.5,0.5-0.8c0.2-0.2,0.3-0.4,0.4-0.5c6.2-8.4,11.4-17.3,16.8-25.9
		c1.3-0.4,2.7-0.8,3.9-1.3c10.3-3.6,20.6-8.2,28.9-15.1c2.4-1.9,6.9-5.2,7.1-8.9c0-0.1,0-0.2,0-0.2c0-0.9-0.1-1.8-0.4-2.6
		c-1.7-4.6-7.4-5.7-11.7-4.6c-10.3,2.4-18.7,11.6-24.8,18.6c-4.2,5-7.8,10.2-11,15.4c-0.9,0.2-1.8,0.4-2.8,0.5
		c-4.5,0.8-15.1,1-19.8,1.2c0.3,0.1,0.4,2,0.2,2.3c0,0-0.1,0.1-0.1,0.1c7.4-0.2,14.7-1.3,21.9-3.1c-5.4,8.7-10.1,17.4-15.6,25.7
		c0,0,0,0,0,0c0,0.1-0.1,0.2-0.1,0.2c0,0.1-0.1,0.2-0.1,0.2c0,0,0,0,0,0c0,0.2-0.2,0.3-0.3,0.4c0,0,0,0.1,0,0.1
		c0,0.1-0.1,0.2-0.2,0.2c-5.8,8.2-11.7,16.1-20.6,21.3c-4.9-1.5-9.9-3.3-15.1-3.3c-2.7,0-5.5,0.6-8,1.7c-1.6,0.7-3.3,1.7-4,3.2
		c-1,2.5,2.5,3.6,4.3,3.9c7.9,1.5,16.8-0.1,23.4-3.7c4.4,2.7,8.7,6.3,13.3,9.1c2.5,1.5,3.3,2.4,7.6,4.9c0,0,0,0,0,0
		c6.3,3.1,12.5,6.3,18.9,9.3c-1.7,2.9-3.5,6.1-5.5,9.8c-1.7,3.3-4.1,9.6-3.1,12.6c0.2,0.7,0.7,1.2,1.3,1.5c2.3,1.1,5.5-1.3,8.8-4.1
		l0,0c3.8-3.6,7.7-8.6,11.2-14.1c4.3,1.8,8.7,3.5,13.3,5c5.7,1.9,12.4,3.7,19.3,3.3c3.3-0.2,6.9-1.4,7.6-3.8c0.8-2.5-1.4-5-3.4-6.8
		c-3.7-3.3-9-5.7-14.4-7.8c-4.7-1.8-9.6-3.3-14.9-4.4c2.4-5.9,3.6-10.7,4.3-14.2c0.6-3.2,0.8-6,0.9-8.2l0.1-0.3
		c0.6,0.4,1.7,0.8,2.6,0.8c2.6,0,4.8-1,7.4-2.5c0.9-0.6,1.8-1.2,2.7-1.9c-1,1.8-1.7,3.6-1.9,5.7c-0.1,1.8,0,4.2,1.4,5.8
		c0.9,1,2.2,1.5,3.8,1.5c3,0,6.5-2.2,8.9-3.8c4.6-3.3,9.6-8.2,13.3-13c0.9-1,2.3-2.7,3.8-4.4c0.9-1.1,1.8-2.2,2.6-3.1
		c0,0.2,0,0.4,0,0.7c0.1,1.9,0.2,3.9-0.1,5.7c-0.3,2.5-1.2,5.2-2.5,8.2c-0.1,0-0.3,0.1-0.4,0.1c-3.8,1.2-11.6,3.6-11.6,7.1
		c0,1.9,1.9,2.8,3.8,2.8c2.6,0,5.3-0.9,7.6-2.6c2.5-1.8,4.4-4.5,5.5-7.6c3.6-1.3,6.7-3.4,9.3-6.4c-1.7,2.7-3.2,5.6-4.3,8.8
		c-0.6,1.9-0.8,4.6,0.3,6.2c0.6,0.8,1.5,1.3,2.6,1.3c2.4,0,5.4-2,9.2-6c2.5-2.6,5-5.7,7.4-8.8c0.5-0.7,1.1-1.4,1.6-2l0,0
		c4.9-6.3,8-9.5,9.4-9.6c0.2,0,0.2,0,0.3,0.1c0.1,0.7-2.4,4.3-4.7,7.7c-1,1.5-2.2,3.3-3.4,5.1c-2.6,3.9-3.9,7.1-3.9,9.9
		c0,2,1.2,3.4,3.1,3.6c2.4,0.2,4.6-1.2,7.8-3.9c1-0.9,2.1-2,3.2-3.1c-3.2,4.9-6.3,9.8-9.5,14.9l-0.5,0.8l-7.6,5.1
		c-5.9,4.1-12.1,8.9-17.9,16.2c-4.5,5.7-7,11.1-6.4,14.1c0.2,1,0.6,1.7,1.4,2c0.4,0.2,0.9,0.3,1.4,0.3h0c1.1,0,2.5-0.5,4.3-1.4
		c2.8-1.7,5.4-3.8,8.3-6.7c3.9-3.9,7.3-8.1,10.3-12.7c4.9-7.1,9.8-14.4,14.3-21.2c7.9-5.5,13.9-11,19.9-17.9
		c-1.5,3.6-3,8.5-1.3,11.3c0.8,1.3,2.2,2,4.1,2.2c3.5,0.2,8.8-3.6,15.3-11c-0.5,1.3-0.8,2.5-1,3.8c-0.1,1.8,0,4.2,1.4,5.8
		c0.9,1,2.2,1.5,3.8,1.5c3,0,6.5-2.2,8.9-3.8c4.6-3.3,9.6-8.2,13.3-13l0,0c0.2-0.2,0.1-0.5-0.1-0.7c-0.2-0.2-0.6-0.2-0.8,0l0,0
		c-4.1,5.1-8.8,9.7-13.1,12.8c-3.3,2.4-6.3,3.6-8.4,3.4c-0.6,0-1-0.2-1.3-0.6c-0.7-1-0.4-3,0-4.5c0.7-2.1,1.5-4.4,3.4-7
		c5.3-0.8,13.9-5.9,16-9.4c0.8-1.4,0.9-2.8,0.3-3.8c-0.6-0.9-1.7-1.3-3.1-1.2c-4.3,0.5-9.4,4.3-11.3,6c-1.6,1.3-3,2.7-4.2,4.2
		c0,0,0,0-0.1,0.1l0,0c-8.1,10.3-15,16.3-18.9,16.3c-0.2,0-0.4,0-0.5,0c-0.5-0.1-0.8-0.3-1.1-0.6c-0.6-1-0.2-2.9,0-3.7
		C574.4,205.9,577.4,200.6,579.9,195.9z"/>
</g>
</svg>
